<svg id="Capa_1" data-name="Capa 1" xmlns="http://www.w3.org/2000/svg" viewBox="0 0 100 100"><defs><style>.cls-1{fill:#35b5e5;}.cls-2{fill:none;}</style></defs><path class="cls-1" d="M50.22,1.66A48.33,48.33,0,0,1,98.78,50.22,48.33,48.33,0,0,1,50.22,98.78,48.33,48.33,0,0,1,1.66,50.22,48.57,48.57,0,0,1,15.79,15.79,48.48,48.48,0,0,1,31.3,5.42,48,48,0,0,1,50.22,1.66Zm0,93.25a43.06,43.06,0,0,0,17.44-3.54,48,48,0,0,0,14.25-9.46,48.1,48.1,0,0,0,9.46-14.25A43,43,0,0,0,94.9,50.22a43,43,0,0,0-3.53-17.44,48.1,48.1,0,0,0-9.46-14.25A48.23,48.23,0,0,0,67.66,9.07,43.06,43.06,0,0,0,50.22,5.53,43,43,0,0,0,32.78,9.07a48.1,48.1,0,0,0-14.25,9.46A47.71,47.71,0,0,0,9.07,32.78,43,43,0,0,0,5.53,50.22,43,43,0,0,0,9.07,67.66a47.71,47.71,0,0,0,9.46,14.25,47.9,47.9,0,0,0,14.25,9.46A43,43,0,0,0,50.22,94.91Zm4.1-21.44h4.11v3.88H42.7V73.47h3.87v-33H42.7V36.54H54.32V73.47Zm-3.87-41A6,6,0,0,1,48.17,32a5.3,5.3,0,0,1-1.83-1.14A4.1,4.1,0,0,1,45,29a5.88,5.88,0,0,1,0-4.56,4.13,4.13,0,0,1,1.36-1.83,4.3,4.3,0,0,1,1.83-1.37,6.13,6.13,0,0,1,2.28-.45,6.21,6.21,0,0,1,2.28.45,4.27,4.27,0,0,1,1.82,1.37,4.23,4.23,0,0,1,1.37,1.83,6,6,0,0,1,0,4.56,4.19,4.19,0,0,1-1.37,1.82A5.25,5.25,0,0,1,52.73,32,6,6,0,0,1,50.45,32.44Z"/><rect class="cls-2" x="0.22" y="0.22" width="100" height="100"/></svg>