<?xml version="1.0" encoding="utf-8"?>
<svg viewBox="0 0 500 500" xmlns="http://www.w3.org/2000/svg">
  <path d="M 498.225 246.663 L 498.225 160.393 C 498.225 157.216 495.635 154.626 492.457 154.626 L 221.621 154.626 C 218.444 154.626 215.854 152.035 215.854 148.858 L 215.854 79.304 C 215.854 76.126 213.263 73.536 210.086 73.536 L 152.068 73.536 C 148.89 73.536 146.3 70.945 146.3 67.768 L 146.3 43.084 C 146.3 39.907 143.71 37.317 140.531 37.317 L 5.432 37.317 C 2.255 37.365 -0.336 39.907 -0.336 43.084 L -0.336 129.355 C -0.336 132.531 2.255 135.123 5.432 135.123 L 140.581 135.123 C 143.759 135.123 146.349 132.531 146.349 129.355 L 146.349 104.672 C 146.349 101.495 148.939 98.904 152.116 98.904 L 184.718 98.904 C 187.895 98.904 190.487 101.495 190.487 104.672 L 190.487 148.858 C 190.487 152.035 187.895 154.626 184.718 154.626 L 152.116 154.626 C 148.939 154.626 146.349 157.216 146.349 160.393 L 146.349 246.663 C 146.349 249.84 148.939 252.431 152.116 252.431 L 184.718 252.431 C 187.895 252.431 190.487 255.021 190.487 258.199 L 190.487 266.216 C 190.487 269.391 187.895 271.983 184.718 271.983 L 152.116 271.983 C 148.939 271.983 146.349 274.573 146.349 277.75 L 146.349 364.021 C 146.349 367.198 148.939 369.788 152.116 369.788 L 287.266 369.788 C 290.443 369.788 293.033 367.198 293.033 364.021 L 293.033 339.338 C 293.033 336.161 295.624 333.569 298.801 333.569 L 331.403 333.569 C 334.58 333.569 337.17 336.161 337.17 339.338 L 337.17 383.523 C 337.17 386.7 334.58 389.29 331.403 389.29 L 298.801 389.29 C 295.624 389.29 293.033 391.882 293.033 395.059 L 293.033 481.329 C 293.033 484.507 295.624 487.097 298.801 487.097 L 482.829 487.097 C 486.006 487.097 488.596 484.507 488.596 481.329 L 488.596 394.962 C 488.596 391.783 486.006 389.193 482.829 389.193 L 368.257 389.193 C 365.08 389.193 362.49 386.603 362.49 383.426 L 362.49 313.872 C 362.49 310.695 359.899 308.103 356.722 308.103 L 298.703 308.103 C 295.526 308.103 292.936 305.513 292.936 302.336 L 292.936 277.653 C 292.936 274.476 290.344 271.884 287.167 271.884 L 221.621 271.884 C 218.444 271.884 215.854 269.294 215.854 266.117 L 215.854 258.102 C 215.854 254.924 218.444 252.333 221.621 252.333 L 492.506 252.333 C 495.635 252.382 498.225 249.84 498.225 246.663 Z M 458.242 462.511 L 323.142 462.511 C 319.965 462.511 317.375 459.921 317.375 456.744 L 317.375 419.352 C 317.375 416.175 319.965 413.583 323.142 413.583 L 458.291 413.583 C 461.468 413.583 464.06 416.175 464.06 419.352 L 464.06 456.744 C 464.011 459.97 461.419 462.511 458.242 462.511 Z M 176.507 179.065 L 468.067 179.065 C 471.244 179.065 473.835 181.655 473.835 184.832 L 473.835 222.224 C 473.835 225.401 471.244 227.991 468.067 227.991 L 176.507 227.991 C 173.33 227.991 170.739 225.401 170.739 222.224 L 170.739 184.832 C 170.739 181.655 173.33 179.065 176.507 179.065 Z" style="fill: rgb(255, 255, 255);"/>
</svg>