<svg xmlns="http://www.w3.org/2000/svg" viewBox="0 0 100 100"><defs><style>.cls-1{fill:#00e097;}</style></defs><g id="Capa_3" data-name="Capa 3"><path class="cls-1" d="M50,1.44A48,48,0,0,1,68.92,5.2,47.89,47.89,0,0,1,94.8,31.08,48,48,0,0,1,98.56,50,48,48,0,0,1,94.8,68.92,47.89,47.89,0,0,1,68.92,94.8,48,48,0,0,1,50,98.56,48.33,48.33,0,0,1,1.44,50,48.57,48.57,0,0,1,15.57,15.57,48.48,48.48,0,0,1,31.08,5.2,48,48,0,0,1,50,1.44Zm0,93.25a43.06,43.06,0,0,0,17.44-3.54,48,48,0,0,0,14.25-9.46,48.1,48.1,0,0,0,9.46-14.25A43,43,0,0,0,94.69,50a43.06,43.06,0,0,0-3.54-17.44,48.23,48.23,0,0,0-9.46-14.25A48.23,48.23,0,0,0,67.44,8.85,43.06,43.06,0,0,0,50,5.31,43,43,0,0,0,32.56,8.85a48.1,48.1,0,0,0-14.25,9.46A48,48,0,0,0,8.85,32.56,43.06,43.06,0,0,0,5.31,50,43,43,0,0,0,8.85,67.44a47.9,47.9,0,0,0,9.46,14.25,47.9,47.9,0,0,0,14.25,9.46A43,43,0,0,0,50,94.69Zm24.39-62a2.32,2.32,0,0,1,1.94-.91,3,3,0,0,1,2.17.91,3.57,3.57,0,0,1,.68,2.17,2.28,2.28,0,0,1-.91,1.94L45,69.15a1,1,0,0,1-.79.57,5,5,0,0,1-1,.11,6,6,0,0,1-1.25-.11,1,1,0,0,1-.8-.57l-13-13A3,3,0,0,1,27.2,54a2.29,2.29,0,0,1,.91-1.94,2.3,2.3,0,0,1,1.94-.91,3,3,0,0,1,2.17.91L43.16,63Z"/></g></svg>